#!OML:ASF F:\VICON\USERDATA\INSTALL\rory3\rory3.ASF
:FULLY-SPECIFIED
:DEGREES
28
root -0.21215630745882685 18.259587667697986 15.211961376690759 -2.2467257409895622 0.8096203473402133 -3.769673611503544
lfemur -1.3891720263336653 -2.406664420801873 -17.46596270273989
ltibia 47.158618347361084
lfoot 3.01784992004612 -16.01155225438136
ltoes -16.722211148995864
rfemur -15.015706456495774 5.332490981677319 27.89883481398448
rtibia 25.55070344745957
rfoot -6.110537142846226 -2.292109352762703
rtoes 6.942755320673105
lowerback 7.6405220787378 -1.7983891613903966 2.886598847131595
upperback -0.04029151663635973 -1.564409650815073 2.4942723356034895
thorax -5.404940498556925 -0.8428512630097696 1.9860589383997873
lowerneck -16.56499360693362 -2.625305312354687 -1.7694878716509037
upperneck 21.957229800720217 -3.1268131212036296 -0.5690594583693533
head 9.779143028252902 -1.6579524660751153 -0.25287419862275107
lclavicle -4.593027399465213e-16 -7.80913219670814e-16
lhumerus -27.41291927106388 1.6370428753531878 82.68134107154985
lradius 28.461556266068115
lwrist 7.122566679371582
lhand -28.66877995251804 22.687035007862544
lfingers 7.12502
lthumb -1.452794858531425 53.666725198822725
rclavicle -4.568683764042165e-16 -7.792509361093999e-16
rhumerus -35.26978756756898 -28.39676928643074 -71.78197037188674
rradius 20.667596393243123
rwrist 10.494826339411482
rhand -18.236970927820668 20.890107795568493
rfingers 7.12502
rthumb 8.075949718947571 -8.971018401922173
29
root -0.22044987273577532 18.26340925642433 17.328417645547738 -2.466996662708958 1.8691424429882484 -3.972683900809697
lfemur -6.338464296661376 -1.7155903704579443 -16.36235505184359
ltibia 53.873055807950905
lfoot 5.9391563690185185 -15.476128829262922
ltoes -9.029271051827488
rfemur -11.787379785350458 4.9351196936966 28.765425881003374
rtibia 25.92113334003121
rfoot -7.968744479319354 -2.6777336140773658
rtoes 8.463903235459085
lowerback 8.242194299800689 -1.6475730637525405 2.6964923887610404
upperback -0.029203005290416403 -1.5446477614950795 2.50616342009889
thorax -5.465270477391899 -0.8357425330543041 1.7261789430763745
lowerneck -16.55606799564588 -2.660225542617611 -1.7171552162756796
upperneck 22.077605682119906 -3.2124226314922515 -0.3219174793861701
head 9.809550470583263 -1.6808771918829988 -0.1903021915907233
lclavicle -4.582707327551665e-16 -7.801339508325809e-16
lhumerus -28.523805931799835 2.31078769952897 82.53596538619423
lradius 27.266970700394317
lwrist 6.5950344016217155
lhand -28.063044298345943 22.826164323748888
lfingers 7.12502
lthumb -1.1846307662274684 53.62279902183008
rclavicle -4.563568705941804e-16 -7.789279458126489e-16
rhumerus -34.515753227167224 -27.28397079429627 -72.71155764912046
rradius 20.957535568749623
rwrist 9.689379272598496
rhand -18.094715033948333 21.610904273570743
rfingers 7.12502
rthumb 8.198973075393013 -8.22883916951458
30
root -0.27724755238288357 18.28672562561809 18.582129862835462 -2.659337460774878 2.071511589102332 -4.232208214032935
lfemur -10.71457793983364 -1.2233595201827248 -15.849735354503224
ltibia 58.51632589914301
lfoot 5.887752763576462 -13.531157191076357
ltoes -5.1016832246890615
rfemur -9.260865599947913 4.91505615811705 29.598774611837705
rtibia 26.96537430094334
rfoot -9.64557583432688 -3.242678488227002
rtoes 9.031440766733226
lowerback 8.528341463091596 -1.4047329183642 3.00831518115283
upperback 0.09484696900340076 -1.2356173602222564 2.4548856374092276
thorax -5.438043536770455 -0.7110490030212112 1.3633577055379629
lowerneck -16.438515740681986 -2.7302949850361333 -1.6837921260887359
upperneck 22.03618810626434 -3.363945904461086 -0.11821072964145507
head 9.769075477535608 -1.7356282009857862 -0.13971867215920614
lclavicle -4.579887096636289e-16 -7.799173704692996e-16
lhumerus -29.435313333585 3.0401921124925706 82.15927250796449
lradius 26.053018051490834
lwrist 5.36200338364888
lhand -28.046478130971582 23.311462332342934
lfingers 7.12502
lthumb -0.9992395975508375 54.217628135096355
rclavicle -4.538625878549432e-16 -7.771023214596801e-16
rhumerus -33.14983047344702 -25.530821266756732 -74.19018640471194
rradius 21.414208383905223
rwrist 8.930829225116597
rhand -17.619762968413276 22.38053717073114
rfingers 7.12502
rthumb 8.611776418658565 -7.63396976519967
31
root -0.34151467421243353 18.290508689070812 19.01739286274664 -2.971855341956567 1.7945767171789178 -4.104904201696994
lfemur -14.218548264194638 -0.5401053010060424 -15.945257723419356
ltibia 60.85477496353564
lfoot -1.1269674413157311 -10.14140087111943
ltoes -11.38151355702137
rfemur -7.518638874926733 5.094998017450742 29.90766069261409
rtibia 28.791045353011896
rfoot -10.599370221056532 -3.4119374530058066
rtoes 9.975615078589062
lowerback 8.397769979370786 -1.0397483769784979 3.0926626762215443
upperback 0.23603838562975982 -0.7819651989782719 2.3329357709783096
thorax -5.281216239157774 -0.48536119348083484 1.0755531809438224
lowerneck -16.236555787462866 -2.837882359783709 -1.699296236754582
upperneck 21.91921650219524 -3.57570029885981 0.17038548991613173
head 9.674893803543963 -1.809403810096751 -0.06490478722026971
lclavicle -4.578528661498909e-16 -7.7983852211034e-16
lhumerus -30.39435842008959 4.222573426912162 81.45079386100598
lradius 24.94003512178792
lwrist 4.001287459122446
lhand -27.68793846771038 22.99414427398483
lfingers 7.12502
lthumb -0.8154166385876583 53.377513485999195
rclavicle -4.534790873833758e-16 -7.768828675477748e-16
rhumerus -31.458915410676493 -23.61331467175844 -75.70258972084527
rradius 21.703678697998843
rwrist 8.536976086363996
rhand -17.141765252002873 22.67627059246559
rfingers 7.12502
rthumb 9.077850475876378 -7.225110362571125
